<?xml version="1.0" encoding="utf-8"?>
<!-- Generator: Adobe Illustrator 25.4.1, SVG Export Plug-In . SVG Version: 6.00 Build 0)  -->
<svg version="1.1" id="Layer_1" xmlns="http://www.w3.org/2000/svg" xmlns:xlink="http://www.w3.org/1999/xlink" x="0px" y="0px"
	 viewBox="0 0 435 485" style="enable-background:new 0 0 435 485;" xml:space="preserve">
<style type="text/css">
	.st0{fill:url(#SVGID_1_);}
	.st1{opacity:0.4;fill:#8CB3C8;enable-background:new    ;}
	.st2{fill:#8CB3C8;}
</style>
<linearGradient id="SVGID_1_" gradientUnits="userSpaceOnUse" x1="315.1724" y1="415.1639" x2="104.8276" y2="50.8361">
	<stop  offset="0.33" style="stop-color:#FFFFFF"/>
	<stop  offset="1" style="stop-color:#ECEFF0"/>
</linearGradient>
<path class="st0" d="M32,93L178,8.6c19.8-11.4,44.2-11.4,64,0L388,93c19.8,11.5,32,32.6,32,55.5v168.9c0,22.9-12.2,44.1-32,55.6
	l-146,84.4c-19.8,11.4-44.2,11.4-64,0L32,373c-19.8-11.5-32-32.7-32-55.6V148.6C0,125.7,12.2,104.5,32,93z"/>
<path class="st1" d="M413.8,121.1c4.1,8.6,6.2,17.9,6.2,27.4v168.9c0,22.9-12.2,44.1-32,55.6l-146,84.4c-19.8,11.4-44.2,11.4-64,0
	L32,373c-6.4-3.7-12.1-8.5-16.8-14.1c5.6,11.8,14.6,21.6,25.8,28.1l146,84.4c19.8,11.4,44.2,11.4,64,0L397,387
	c19.8-11.5,32-32.6,32-55.5V162.6C429,147.4,423.6,132.7,413.8,121.1z"/>
<path class="st2" d="M70,394.9l-5.5,5.5c-1.9,2-1.9,5.1,0,7.1c0.3,0.3,0.6,0.5,1,0.8l0,0c2,1.1,4.4,0.8,6-0.8l7.4-7.4L70,394.9z"/>
<path class="st2" d="M44.2,380l-5.4,5.4c-1.9,1.9-1.9,5,0,7c0.2,0.2,0.5,0.4,0.7,0.6l0.1,0.1c2,1.3,4.6,1.1,6.3-0.6l7.3-7.3
	L44.2,380z"/>
<path class="st2" d="M121.4,424.7l-5.4,5.5c-1.7,2.2-1.2,5.3,1,7c1.8,1.3,4.2,1.3,6,0l7.3-7.3L121.4,424.7z"/>
<path class="st2" d="M95.7,409.8l-5.5,5.5c-1.7,2.2-1.2,5.3,1,7c1.8,1.3,4.2,1.3,6,0l7.3-7.4L95.7,409.8z"/>
<path class="st2" d="M19.8,363.8l-0.9,0.9c-1.6,1.6-1.9,4.2-0.7,6.1l0.1,0.1c1.4,2.3,4.5,3,6.8,1.6c0.3-0.2,0.6-0.4,0.9-0.7l1.7-1.7
	C24.8,368.3,22.2,366.1,19.8,363.8z"/>
<path class="st2" d="M420,180.9l13.3-13.3c1-1,1.6-2.5,1.4-3.9v-0.1c-0.3-2.7-2.7-4.7-5.4-4.4c-1.1,0.1-2.2,0.6-3,1.4l-6.3,6.3
	V180.9z"/>
<path class="st2" d="M419.5,140.8l3.6-3.6c1.6-1.6,1.9-4.2,0.7-6.1l-0.1-0.1c-1.4-2.3-4.4-3-6.7-1.6
	C418.2,133.1,419,136.9,419.5,140.8z"/>
<path class="st2" d="M426.5,200.9l-6.5,6.5v14.1l13.5-13.5c2.2-1.7,2.7-4.8,1-7s-4.8-2.7-7-1C427.2,200.2,426.8,200.6,426.5,200.9
	L426.5,200.9z"/>
<path class="st2" d="M147.1,439.6l-5.4,5.4c-1.9,2-1.9,5.1,0,7.1c0.3,0.3,0.6,0.5,1,0.8l0,0c2,1.1,4.4,0.8,6-0.8l7.3-7.3
	L147.1,439.6z"/>
<path class="st2" d="M178,457.4l-5.1-3l-5.5,5.5c-1.9,1.9-1.9,5,0,7c0.3,0.3,0.6,0.6,1,0.8h0.1c1.9,1.1,4.4,0.8,5.9-0.8l7.4-7.4
	C180.6,458.9,179.3,458.1,178,457.4z"/>
<path class="st2" d="M426.5,282.1l-6.5,6.5v14.1l13.5-13.5c2.2-1.7,2.7-4.8,1-7s-4.8-2.7-7-1C427.2,281.4,426.8,281.8,426.5,282.1
	L426.5,282.1z"/>
<path class="st2" d="M422.8,367l-26.6,26.6c-0.6,0.6-0.5,1.5,0,2c0.5,0.5,1.2,0.5,1.7,0.2l0,0c11.2-6.5,20.6-15.8,27.1-27.1
	c0.4-0.7,0.2-1.6-0.5-2C423.9,366.5,423.2,366.6,422.8,367z"/>
<path class="st2" d="M426.5,241.5L420,248v14.1l13.5-13.5c2.2-1.7,2.7-4.8,1-7s-4.8-2.7-7-1C427.2,240.8,426.8,241.2,426.5,241.5
	L426.5,241.5z"/>
<path class="st2" d="M426.5,322.7l-7.9,7.9c-2,9.5-6.1,18.4-12,26.1l26.9-26.9c2.2-1.7,2.7-4.8,1-7s-4.8-2.7-7-1
	C427.2,322,426.8,322.4,426.5,322.7L426.5,322.7z"/>
<path class="st2" d="M388,373l-27.9,16.1l-60,60c-0.6,0.6-0.5,1.5,0,2c0.5,0.5,1.2,0.5,1.7,0.2l23.7-13.7c0.1-0.1,0.2-0.1,0.3-0.2
	l69.2-69.2C392.8,370,390.4,371.6,388,373z"/>
<path class="st2" d="M202.4,465.5L194,474c-1.9,1.9-1.9,5.1,0,7c0.5,0.5,1.1,0.9,1.8,1.2h0.1c1.8,0.6,3.8,0.2,5.1-1.1l15.3-15.3
	C211.7,466.1,207,466.1,202.4,465.5z"/>
<path class="st2" d="M263.7,444.9L232,476.6c-1.9,1.9-1.9,5.1,0,7c1.2,1.2,2.9,1.7,4.5,1.3h0.2c0.9-0.2,1.8-0.7,2.4-1.3l58-58
	L263.7,444.9z"/>
</svg>
