<svg xmlns="http://www.w3.org/2000/svg"  viewBox="0 0 50 50" width="500px" height="500px"><path d="M 19.699219 1 C 17.665885 1 16 2.6658854 16 4.6992188 L 16 15.400391 C 16 17.433724 17.665885 19.099609 19.699219 19.099609 L 30.400391 19.099609 C 32.433724 19.099609 34.099609 17.433724 34.099609 15.400391 L 34.099609 4.6992188 A 1.0001 1.0001 0 0 0 34.097656 4.6328125 C 33.964738 2.6383346 32.334115 1 30.300781 1 L 19.699219 1 z M 19.699219 3 L 30.300781 3 C 31.265919 3 32.030467 3.7585597 32.099609 4.7617188 L 32.099609 15.400391 C 32.099609 16.367057 31.367057 17.099609 30.400391 17.099609 L 19.699219 17.099609 C 18.732552 17.099609 18 16.367057 18 15.400391 L 18 4.6992188 C 18 3.7325521 18.732552 3 19.699219 3 z M 24 6 L 24 9 L 21 9 L 21 11 L 24 11 L 24 14 L 26 14 L 26 11 L 29 11 L 29 9 L 26 9 L 26 6 L 24 6 z M 6.6992188 9 C 4.6658853 9 3 10.665885 3 12.699219 L 3 46 L 48 46 L 48 12.699219 C 48 10.665885 46.334115 9 44.300781 9 L 36 9 L 36 11 L 44.300781 11 C 45.267448 11 46 11.732552 46 12.699219 L 46 44 L 30 44 L 30 33 L 29 33 L 25.400391 33 L 20 33 L 20 44 L 5 44 L 5 12.699219 C 5 11.732552 5.7325521 11 6.6992188 11 L 14 11 L 14 9 L 6.6992188 9 z M 6.9589844 21.958984 L 6.9589844 30.041016 L 16.041016 30.041016 L 16.041016 21.958984 L 15 21.958984 L 10.900391 21.958984 L 6.9589844 21.958984 z M 19.958984 21.958984 L 19.958984 30.041016 L 30.041016 30.041016 L 30.041016 21.958984 L 29 21.958984 L 24.900391 21.958984 L 19.958984 21.958984 z M 33.958984 21.958984 L 33.958984 30.041016 L 43.041016 30.041016 L 43.041016 21.958984 L 42 21.958984 L 38.900391 21.958984 L 33.958984 21.958984 z M 9.0410156 24.041016 L 10.900391 24.041016 L 13.958984 24.041016 L 13.958984 27.958984 L 9.0410156 27.958984 L 9.0410156 24.041016 z M 22.041016 24.041016 L 24.900391 24.041016 L 27.958984 24.041016 L 27.958984 27.958984 L 22.041016 27.958984 L 22.041016 24.041016 z M 36.041016 24.041016 L 38.900391 24.041016 L 40.958984 24.041016 L 40.958984 27.958984 L 36.041016 27.958984 L 36.041016 24.041016 z M 6.9589844 32.958984 L 6.9589844 41.041016 L 16.041016 41.041016 L 16.041016 32.958984 L 15 32.958984 L 10.900391 32.958984 L 6.9589844 32.958984 z M 33.958984 32.958984 L 33.958984 41.041016 L 43.041016 41.041016 L 43.041016 32.958984 L 42 32.958984 L 38.900391 32.958984 L 33.958984 32.958984 z M 22 35 L 25.400391 35 L 28 35 L 28 44 L 22 44 L 22 35 z M 9.0410156 35.041016 L 10.900391 35.041016 L 13.958984 35.041016 L 13.958984 38.958984 L 9.0410156 38.958984 L 9.0410156 35.041016 z M 36.041016 35.041016 L 38.900391 35.041016 L 40.958984 35.041016 L 40.958984 38.958984 L 36.041016 38.958984 L 36.041016 35.041016 z"/></svg>