<svg xmlns="http://www.w3.org/2000/svg"  viewBox="0 0 64 64" width="512px" height="512px"><path d="M25.229 48.724c-.194-.283-.895-1.272-3.619-5.122-.538-.76-1.414-1.213-2.345-1.213-1.003 0-1.916.51-2.443 1.362-.528.854-.575 1.898-.099 2.85l.42.726-1.634-.545-2.565-5.13-.684-2.736C11.977 37.787 10.968 37 9.806 37c-.745 0-1.448.326-1.93.895s-.688 1.315-.565 2.051l.068.409-.297-.346c-.951-1.107-2.583-1.33-3.796-.522-.652.435-1.092 1.099-1.236 1.87-.145.771.023 1.548.473 2.189l5.752 8.217c.136.196.298.377.483.54l3.961 3.466c.29.254.626.517.979.792 1.219.953 2.6 2.032 2.516 3.201-.048.666-.12 1.33-.192 1.993l-.015.139 1.988.215.015-.138c.075-.688.149-1.376.198-2.065.161-2.232-1.746-3.723-3.278-4.92-.321-.251-.629-.49-.894-.723l-3.959-3.464c-.062-.055-.116-.115-.162-.181l-5.753-8.22c-.139-.197-.19-.437-.146-.673.044-.237.179-.441.38-.575.372-.248.876-.181 1.169.16l4.573 5.337c.328.385.752.682 1.261.871l2.691.898.016.032.032-.016 4.515 1.506.213.368C18.953 50.458 19 50.632 19 50.807V52h2v-1.193c0-.525-.139-1.045-.402-1.502l-2.114-3.652c-.196-.393-.038-.725.039-.85.076-.124.303-.414.742-.414.283 0 .55.138.713.368 0 0 3.558 5.028 3.624 5.123 1.727 2.43 1.593 5.376 1.45 8.495-.056 1.211-.112 2.462-.051 3.676l1.998-.102c-.058-1.118-.005-2.267.051-3.482.151-3.321.308-6.755-1.817-9.745L25.229 48.724zM12.065 45.633c-.157-.059-.297-.157-.407-.285l-1.763-2.057-.612-3.674c-.035-.211.06-.36.118-.43C9.461 39.117 9.592 39 9.806 39c.243 0 .455.165.515.4l.71 2.842c.018.071.043.14.075.205l1.719 3.439L12.065 45.633zM60.714 39.485c-1.215-.81-2.847-.584-3.796.523l-.297.346.068-.41c.122-.735-.084-1.482-.565-2.051S54.939 37 54.194 37c-1.162 0-2.171.787-2.454 1.916l-.684 2.735-2.565 5.13-1.636.546.451-.78c.448-.897.401-1.942-.127-2.796-.527-.853-1.44-1.362-2.443-1.362-.931 0-1.807.453-2.346 1.214-2.724 3.849-3.424 4.838-3.618 5.121l-.004-.002c-2.125 2.99-1.969 6.424-1.817 9.745.056 1.216.108 2.364.051 3.482l1.998.102c.062-1.214.005-2.465-.051-3.676-.143-3.119-.276-6.065 1.454-8.5.062-.09 3.62-5.118 3.619-5.117.164-.231.431-.369.714-.369.439 0 .666.29.742.414.077.125.235.457.067.796l-2.143 3.707C43.139 49.762 43 50.281 43 50.807V52h2v-1.193c0-.175.047-.349.135-.5l.213-.369 4.515-1.507.032.016.016-.032 2.725-.909c.475-.178.898-.475 1.224-.857l4.576-5.338c.292-.34.794-.412 1.169-.161.201.134.336.338.38.575.045.236-.007.476-.146.674l-5.754 8.221c-.045.063-.099.124-.159.177l-3.961 3.466c-.265.232-.572.472-.894.723-1.532 1.197-3.439 2.688-3.278 4.919.049.69.123 1.379.198 2.066l.015.138 1.988-.215-.015-.139c-.072-.663-.145-1.327-.192-1.994-.084-1.168 1.297-2.247 2.516-3.2.353-.275.688-.538.979-.792l3.963-3.468c.184-.161.346-.342.48-.536l5.753-8.218c.449-.643.617-1.42.473-2.19C61.806 40.584 61.366 39.92 60.714 39.485zM52.339 45.35c-.107.126-.247.225-.37.271l-.794.265 1.719-3.439c.032-.065.058-.134.075-.205l.71-2.841C53.739 39.165 53.951 39 54.194 39c.214 0 .345.117.404.188.059.069.153.219.118.43l-.612 3.673L52.339 45.35zM36 36v-8.382l1.447-.724C37.786 26.725 38 26.379 38 26v-6c0-2-1.188-3.717-2.889-4.516C35.659 14.799 36 13.943 36 13c0-2.206-1.794-4-4-4s-4 1.794-4 4c0 .943.341 1.799.889 2.484C27.188 16.283 26 18 26 20v6c0 .379.214.725.553.895L28 27.618V36c0 .553.447 1 1 1h6C35.553 37 36 36.553 36 36zM32 11c1.103 0 2 .897 2 2s-.897 2-2 2-2-.897-2-2S30.897 11 32 11zM34 27v8h-4v-8c0-.379-.214-.725-.553-.895L28 25.382V20c0-1.654 1.346-3 3-3h2c1.654 0 3 1.346 3 3v5.382l-1.447.724C34.214 26.275 34 26.621 34 27zM54 11V7c0-.553-.447-1-1-1h-3V3c0-.553-.447-1-1-1h-4c-.553 0-1 .447-1 1v3h-3c-.553 0-1 .447-1 1v4c0 .553.447 1 1 1h3v3c0 .553.447 1 1 1h4c.553 0 1-.447 1-1v-3h3C53.553 12 54 11.553 54 11zM52 10h-3c-.553 0-1 .447-1 1v3h-2v-3c0-.553-.447-1-1-1h-3V8h3c.553 0 1-.447 1-1V4h2v3c0 .553.447 1 1 1h3V10zM49.938 33.926l-1.707-1.041c-.329.539-.688 1.066-1.068 1.567l1.594 1.209C49.177 35.106 49.574 34.522 49.938 33.926zM26.281 43.213c.674.189 1.362.347 2.047.468l.346-1.971c-.618-.108-1.24-.251-1.85-.423L26.281 43.213zM30.559 41.946L30.41 43.94C30.935 43.979 31.466 44 32 44c.169 0 .338-.002.506-.006l-.049-2C31.822 42.011 31.185 41.992 30.559 41.946zM34.354 41.854l.242 1.985c.69-.084 1.386-.205 2.068-.359l-.443-1.951C35.605 41.67 34.978 41.779 34.354 41.854zM51.752 30.146l-1.881-.68c-.214.591-.461 1.18-.734 1.75l1.803.865C51.242 31.452 51.516 30.801 51.752 30.146zM40.64 42.146l-.824-1.822c-.574.26-1.168.493-1.767.693l.637 1.896C39.347 42.691 40.005 42.433 40.64 42.146zM36.85 2.562L36.391 4.51c.61.144 1.225.322 1.823.528l.652-1.891C38.204 2.919 37.525 2.723 36.85 2.562zM41.504 39.456l1.002 1.73c.604-.35 1.196-.732 1.761-1.14l-1.168-1.623C42.587 38.792 42.05 39.14 41.504 39.456zM52.775 26.081l-1.979-.291c-.091.619-.216 1.246-.369 1.863l1.939.484C52.538 27.457 52.675 26.766 52.775 26.081zM53 23c0-.371-.009-.739-.028-1.105L50.974 22C50.991 22.331 51 22.664 51 23c0 .302-.008.602-.021.899l1.998.094C52.992 23.664 53 23.333 53 23zM52.759 19.808c-.105-.692-.247-1.385-.42-2.057l-1.938.498c.157.608.285 1.234.381 1.861L52.759 19.808zM44.582 37.237l1.324 1.498c.525-.465 1.03-.958 1.501-1.466L45.94 35.91C45.515 36.37 45.058 36.816 44.582 37.237zM11 22.906l2 .008c.003-.632.037-1.271.102-1.896l-1.99-.205C11.041 21.504 11.003 22.208 11 22.906zM14.461 30.318c-.245-.586-.461-1.186-.642-1.783l-1.914.578c.2.663.439 1.328.71 1.977L14.461 30.318zM11.433 18.738l1.959.404c.127-.614.287-1.233.476-1.839l-1.908-.596C11.75 17.376 11.573 18.06 11.433 18.738zM13.358 26.691c-.123-.621-.215-1.253-.272-1.877L11.094 25c.065.692.167 1.392.302 2.078L13.358 26.691zM17.52 10.696l-1.525-1.293c-.451.531-.88 1.091-1.276 1.663l1.645 1.139C16.722 11.686 17.11 11.179 17.52 10.696zM12.688 14.737l1.838.787c.251-.584.531-1.158.834-1.704l-1.75-.969C13.275 13.456 12.965 14.091 12.688 14.737zM23.45 6.027l-.902-1.785c-.623.315-1.235.664-1.823 1.039l1.076 1.686C22.332 6.629 22.887 6.312 23.45 6.027zM28.843 4.261c.618-.104 1.252-.178 1.885-.219l-.131-1.996c-.699.046-1.401.127-2.086.242L28.843 4.261zM25.027 40.681c-.585-.231-1.167-.496-1.729-.785l-.916 1.777c.621.32 1.264.612 1.909.867L25.027 40.681zM26.988 4.668l-.525-1.93c-.672.183-1.344.402-1.996.653l.719 1.867C25.774 5.032 26.381 4.833 26.988 4.668zM18.697 36.565c-.445-.438-.88-.907-1.291-1.396l-1.531 1.285c.451.539.93 1.057 1.422 1.539L18.697 36.565zM21.656 38.941c-.523-.341-1.042-.716-1.542-1.115l-1.248 1.562c.55.439 1.121.853 1.698 1.229L21.656 38.941zM20.252 8.065l-1.238-1.57c-.548.431-1.08.895-1.581 1.379l1.387 1.439C19.274 8.876 19.756 8.456 20.252 8.065zM16.266 33.654c-.354-.522-.686-1.068-.987-1.624l-1.758.953c.332.613.699 1.216 1.089 1.792L16.266 33.654zM32.629 4.01c.635.021 1.271.073 1.893.155l.264-1.982c-.688-.092-1.391-.149-2.092-.171L32.629 4.01z"/></svg>