<svg xmlns="http://www.w3.org/2000/svg"  viewBox="0 0 80 80" width="240px" height="240px"><path d="M 40 3.8378906 L 12 20.429688 L 12 72 L 13 72 L 68 72 L 68 20.429688 L 40 3.8378906 z M 40 6.1621094 L 66 21.570312 L 66 70 L 46 70 L 46 54 L 34 54 L 34 70 L 14 70 L 14 21.570312 L 40 6.1621094 z M 40 10 A 1 1 0 0 0 39 11 A 1 1 0 0 0 40 12 A 1 1 0 0 0 41 11 A 1 1 0 0 0 40 10 z M 36.560547 12.042969 A 1 1 0 0 0 35.560547 13.042969 A 1 1 0 0 0 36.560547 14.042969 A 1 1 0 0 0 37.560547 13.042969 A 1 1 0 0 0 36.560547 12.042969 z M 43.484375 12.042969 A 1 1 0 0 0 42.484375 13.042969 A 1 1 0 0 0 43.484375 14.042969 A 1 1 0 0 0 44.484375 13.042969 A 1 1 0 0 0 43.484375 12.042969 z M 33.121094 14.083984 A 1 1 0 0 0 32.121094 15.083984 A 1 1 0 0 0 33.121094 16.083984 A 1 1 0 0 0 34.121094 15.083984 A 1 1 0 0 0 33.121094 14.083984 z M 46.923828 14.083984 A 1 1 0 0 0 45.923828 15.083984 A 1 1 0 0 0 46.923828 16.083984 A 1 1 0 0 0 47.923828 15.083984 A 1 1 0 0 0 46.923828 14.083984 z M 29.681641 16.126953 A 1 1 0 0 0 28.681641 17.126953 A 1 1 0 0 0 29.681641 18.126953 A 1 1 0 0 0 30.681641 17.126953 A 1 1 0 0 0 29.681641 16.126953 z M 50.363281 16.126953 A 1 1 0 0 0 49.363281 17.126953 A 1 1 0 0 0 50.363281 18.126953 A 1 1 0 0 0 51.363281 17.126953 A 1 1 0 0 0 50.363281 16.126953 z M 26.242188 18.167969 A 1 1 0 0 0 25.242188 19.167969 A 1 1 0 0 0 26.242188 20.167969 A 1 1 0 0 0 27.242188 19.167969 A 1 1 0 0 0 26.242188 18.167969 z M 53.802734 18.167969 A 1 1 0 0 0 52.802734 19.167969 A 1 1 0 0 0 53.802734 20.167969 A 1 1 0 0 0 54.802734 19.167969 A 1 1 0 0 0 53.802734 18.167969 z M 22.802734 20.210938 A 1 1 0 0 0 21.802734 21.210938 A 1 1 0 0 0 22.802734 22.210938 A 1 1 0 0 0 23.802734 21.210938 A 1 1 0 0 0 22.802734 20.210938 z M 57.242188 20.210938 A 1 1 0 0 0 56.242188 21.210938 A 1 1 0 0 0 57.242188 22.210938 A 1 1 0 0 0 58.242188 21.210938 A 1 1 0 0 0 57.242188 20.210938 z M 19.363281 22.251953 A 1 1 0 0 0 18.363281 23.251953 A 1 1 0 0 0 19.363281 24.251953 A 1 1 0 0 0 20.363281 23.251953 A 1 1 0 0 0 19.363281 22.251953 z M 60.681641 22.251953 A 1 1 0 0 0 59.681641 23.251953 A 1 1 0 0 0 60.681641 24.251953 A 1 1 0 0 0 61.681641 23.251953 A 1 1 0 0 0 60.681641 22.251953 z M 15.923828 24.294922 A 1 1 0 0 0 14.923828 25.294922 A 1 1 0 0 0 15.923828 26.294922 A 1 1 0 0 0 16.923828 25.294922 A 1 1 0 0 0 15.923828 24.294922 z M 64.121094 24.294922 A 1 1 0 0 0 63.121094 25.294922 A 1 1 0 0 0 64.121094 26.294922 A 1 1 0 0 0 65.121094 25.294922 A 1 1 0 0 0 64.121094 24.294922 z M 19 29 L 19 30 L 19 39 L 31 39 L 31 29 L 19 29 z M 34 29 L 34 30 L 34 39 L 46 39 L 46 29 L 34 29 z M 49 29 L 49 30 L 49 39 L 61 39 L 61 29 L 49 29 z M 21 31 L 29 31 L 29 37 L 21 37 L 21 31 z M 36 31 L 44 31 L 44 37 L 36 37 L 36 31 z M 51 31 L 59 31 L 59 37 L 51 37 L 51 31 z M 19 42 L 19 43 L 19 52 L 31 52 L 31 42 L 19 42 z M 34 42 L 34 43 L 34 52 L 46 52 L 46 42 L 34 42 z M 49 42 L 49 43 L 49 52 L 61 52 L 61 42 L 49 42 z M 21 44 L 29 44 L 29 50 L 21 50 L 21 44 z M 36 44 L 44 44 L 44 50 L 36 50 L 36 44 z M 51 44 L 59 44 L 59 50 L 51 50 L 51 44 z M 19 55 L 19 56 L 19 65 L 31 65 L 31 55 L 19 55 z M 49 55 L 49 56 L 49 65 L 61 65 L 61 55 L 49 55 z M 36 56 L 44 56 L 44 70 L 36 70 L 36 56 z M 21 57 L 29 57 L 29 63 L 21 63 L 21 57 z M 51 57 L 59 57 L 59 63 L 51 63 L 51 57 z"/></svg>