<svg xmlns="http://www.w3.org/2000/svg"  viewBox="0 0 50 50" width="50px" height="50px"><path d="M 25 2 C 18.243757 2 12.467768 6.2125094 10.125 12.144531 C 10.085545 12.133602 10.048622 12.114939 10.015625 12.109375 C 9.7892588 12.071205 9.5904654 12.065054 9.0976562 12.052734 C 6.863648 11.997017 5 13.818575 5 16.052734 L 5 28 C 5 29.492222 4.971214 30.467798 5.1113281 31.347656 C 5.2514426 32.227515 5.6416929 33.001322 6.265625 33.677734 L 6.2109375 33.615234 C 6.2109375 33.615234 11.739969 40.71043 13 42.34375 L 13 45.140625 C 13 45.880703 13.509154 46.563206 13.994141 46.794922 C 14.479126 47.026638 14.9 47 15 47 L 22 47 C 22.69 47 23.38702 46.720034 23.71875 46.199219 C 24.05048 45.678403 24 45.215 24 45 L 24 40 C 24 39.93625 23.996198 39.82221 23.986328 39.701172 C 23.934188 37.373116 23.187577 35.408453 22.136719 33.738281 C 23.06681 33.906742 24.02325 34 25 34 C 25.977285 34 26.932847 33.906452 27.863281 33.738281 C 26.812433 35.408443 26.065812 37.373116 26.013672 39.701172 C 26.003781 39.82221 26 39.936253 26 40 L 26 45 C 26 45.215 25.94952 45.678403 26.28125 46.199219 C 26.61298 46.720034 27.31 47 28 47 L 35 47 C 35.1 47 35.520873 47.02664 36.005859 46.794922 C 36.490846 46.563206 37 45.880703 37 45.140625 L 37 42.34375 C 38.260031 40.71043 43.789063 33.615234 43.789062 33.615234 L 43.734375 33.677734 C 44.358307 33.001322 44.748557 32.227515 44.888672 31.347656 C 45.028789 30.467798 45 29.492222 45 28 L 45 16.052734 C 45 13.818575 43.136352 11.997017 40.902344 12.052734 C 40.409535 12.065054 40.210741 12.071205 39.984375 12.109375 C 39.951378 12.114938 39.914752 12.133701 39.875 12.144531 C 37.532232 6.2125094 31.756243 2 25 2 z M 24 4.4589844 L 24 9.9785156 L 20.15625 9.9785156 C 20.390284 9.1941103 20.654861 8.4639151 20.957031 7.8164062 C 21.85745 5.8869354 22.936084 4.9241537 24 4.4589844 z M 26 4.4589844 C 27.063916 4.9241537 28.14255 5.8869354 29.042969 7.8164062 C 29.345139 8.4639151 29.609716 9.1941103 29.84375 9.9785156 L 26 9.9785156 L 26 4.4589844 z M 20.427734 4.7753906 C 19.953022 5.4286529 19.521369 6.1631941 19.144531 6.9707031 C 18.722007 7.8761143 18.366844 8.890798 18.072266 9.9785156 L 13.529297 9.9785156 C 15.205408 7.583736 17.610667 5.7467395 20.427734 4.7753906 z M 29.572266 4.7753906 C 32.389333 5.7467395 34.794592 7.583736 36.470703 9.9785156 L 31.927734 9.9785156 C 31.633156 8.890798 31.277993 7.8761143 30.855469 6.9707031 C 30.478631 6.1631941 30.046978 5.4286529 29.572266 4.7753906 z M 12.349609 12.021484 L 17.613281 12.021484 C 17.326028 13.582368 17.14784 15.255081 17.09375 17 L 11.050781 17 C 11.175858 15.226956 11.627403 13.549812 12.349609 12.021484 z M 19.648438 12.021484 L 24 12.021484 L 24 17 L 19.09375 17 C 19.153581 15.238699 19.343602 13.554689 19.648438 12.021484 z M 26 12.021484 L 30.351562 12.021484 C 30.656398 13.554689 30.846419 15.238699 30.90625 17 L 26 17 L 26 12.021484 z M 32.386719 12.021484 L 37.650391 12.021484 C 38.372597 13.549812 38.824142 15.226956 38.949219 17 L 32.90625 17 C 32.85216 15.255081 32.673972 13.582368 32.386719 12.021484 z M 9 14.070312 L 9 18 L 9 28 A 1.0001 1.0001 0 0 0 9.1171875 28.482422 C 9.1060355 29.257662 9.2798116 30.042082 9.7773438 30.705078 L 14.199219 36.599609 A 1.0003905 1.0003905 0 1 0 15.800781 35.400391 L 11.378906 29.503906 A 1.0001 1.0001 0 0 0 11.376953 29.503906 C 10.82939 28.774241 10.974882 27.770618 11.705078 27.222656 L 11.707031 27.21875 C 12.380712 26.71349 13.305518 26.796155 13.878906 27.412109 L 18.328125 32.191406 A 1.0001 1.0001 0 0 0 18.351562 32.214844 C 20.319412 34.192246 21.926705 36.547666 21.990234 39.769531 A 1.0001 1.0001 0 0 0 21.998047 39.875 C 21.996608 39.863397 22 39.92 22 40 L 22 45 L 15 45 L 15 42 A 1.0001 1.0001 0 0 0 14.792969 41.390625 C 13.747323 40.030271 7.7890625 32.384766 7.7890625 32.384766 A 1.0001 1.0001 0 0 0 7.734375 32.322266 C 7.2883066 31.838678 7.178323 31.613344 7.0859375 31.033203 C 6.993552 30.453062 7 29.507778 7 28 L 7 16.052734 C 7 14.935182 7.8914424 14.071464 9 14.070312 z M 41 14.070312 C 42.108558 14.071513 43 14.935182 43 16.052734 L 43 28 C 43 29.507778 43.006403 30.453062 42.914062 31.033203 C 42.821672 31.613344 42.711693 31.838678 42.265625 32.322266 A 1.0001 1.0001 0 0 0 42.210938 32.384766 C 42.210938 32.384766 36.252677 40.030271 35.207031 41.390625 A 1.0001 1.0001 0 0 0 35 42 L 35 45 L 28 45 L 28 40 C 28 39.92 28.003353 39.863405 28.001953 39.875 A 1.0001 1.0001 0 0 0 28.009766 39.769531 C 28.073296 36.547666 29.680588 34.192246 31.648438 32.214844 A 1.0001 1.0001 0 0 0 31.671875 32.191406 L 36.121094 27.412109 C 36.694482 26.796155 37.619288 26.71349 38.292969 27.21875 L 38.294922 27.222656 C 39.025118 27.770618 39.17061 28.774241 38.623047 29.503906 A 1.0001 1.0001 0 0 0 38.621094 29.503906 L 34.199219 35.400391 A 1.0003905 1.0003905 0 0 0 35.800781 36.599609 L 40.222656 30.705078 L 40.222656 30.703125 C 40.719432 30.040441 40.893957 29.25709 40.882812 28.482422 A 1.0001 1.0001 0 0 0 41 28 L 41 18 L 41 14.070312 z M 11.037109 19 L 17.09375 19 C 17.159604 21.124425 17.405883 23.143498 17.816406 24.978516 L 14 24.978516 A 1.0216021 1.0216021 0 0 0 13.558594 25.072266 C 13.337049 25.029072 13.112143 25.006274 12.884766 25.005859 C 11.847565 23.216072 11.190687 21.180902 11.037109 19 z M 19.09375 19 L 24 19 L 24 24.978516 L 19.873047 24.978516 C 19.438021 23.190789 19.166941 21.154593 19.09375 19 z M 26 19 L 30.90625 19 C 30.833059 21.154593 30.561979 23.190789 30.126953 24.978516 L 26 24.978516 L 26 19 z M 32.90625 19 L 38.962891 19 C 38.809334 21.180718 38.152513 23.215394 37.115234 25.005859 C 36.887857 25.006274 36.662951 25.029072 36.441406 25.072266 A 1.0216021 1.0216021 0 0 0 36 24.978516 L 32.183594 24.978516 C 32.594117 23.143498 32.840396 21.124425 32.90625 19 z M 16.248047 27.021484 L 18.367188 27.021484 C 18.597235 27.732684 18.8543 28.407372 19.144531 29.029297 C 19.52334 29.841031 19.957851 30.578652 20.435547 31.234375 C 20.402153 31.222853 20.367265 31.214892 20.333984 31.203125 L 20.28125 31.349609 C 20.111744 31.166771 19.943999 30.980033 19.771484 30.806641 L 16.248047 27.021484 z M 20.486328 27.021484 L 24 27.021484 L 24 31.541016 C 22.936084 31.075846 21.85745 30.113065 20.957031 28.183594 C 20.788189 27.821788 20.634266 27.427992 20.486328 27.021484 z M 26 27.021484 L 29.513672 27.021484 C 29.365734 27.427992 29.211811 27.821788 29.042969 28.183594 C 28.14255 30.113065 27.063916 31.075846 26 31.541016 L 26 27.021484 z M 31.632812 27.021484 L 33.751953 27.021484 L 30.230469 30.804688 L 30.228516 30.806641 C 30.137939 30.897678 30.050803 30.998173 29.960938 31.091797 C 29.834376 31.139823 29.7025 31.176269 29.574219 31.220703 C 30.047909 30.568287 30.479307 29.835358 30.855469 29.029297 C 31.1457 28.407372 31.402765 27.732684 31.632812 27.021484 z"/></svg>