<?xml version="1.0" encoding="utf-8"?>
<!-- Generator: Adobe Illustrator 25.4.1, SVG Export Plug-In . SVG Version: 6.00 Build 0)  -->
<svg version="1.1" id="Layer_1" xmlns="http://www.w3.org/2000/svg" xmlns:xlink="http://www.w3.org/1999/xlink" x="0px" y="0px"
	 viewBox="0 0 2178 400" style="enable-background:new 0 0 2178 400;" xml:space="preserve">
<style type="text/css">
	.st0{fill:#FFFFFF;enable-background:new    ;}
	.st1{fill:#FFFFFF;}
</style>
<path class="st0" d="M1261,340.2l22,12.7c2.5,1.5,5.5,1.5,8,0l22-12.7c2.5-1.4,4-4.1,4-7v-25.4c0-2.9-1.5-5.6-4-7l-22-12.7
	c-2.5-1.5-5.5-1.5-8,0l-22,12.7c-2.5,1.4-4,4.1-4,7v25.4C1257,336.1,1258.5,338.8,1261,340.2z"/>
<path class="st1" d="M1393,340.2l22,12.7c2.5,1.5,5.5,1.5,8,0l22-12.7c2.5-1.4,4-4.1,4-7v-25.4c0-2.9-1.5-5.6-4-7l-22-12.7
	c-2.5-1.5-5.5-1.5-8,0l-22,12.7c-2.5,1.4-4,4.1-4,7v25.4C1389,336.1,1390.5,338.8,1393,340.2z"/>
<path class="st1" d="M2178,400V115c-1.4,0-2.8,0.4-4,1.1l-22,12.7c-2.5,1.4-4,4.1-4,7v25.4c0,2.9,1.5,5.6,4,7l8.2,4.8
	c1.4,0.7,1.9,2.4,1.2,3.8c0,0,0,0.1-0.1,0.1l0,0c-0.8,1.3-2.5,1.8-3.8,1h-0.1l-8.4-4.8c-2.5-1.5-5.5-1.5-8,0l-22,12.7
	c-2.5,1.4-4,4.1-4,7v9.5c0.1,1.6-1.2,3-2.8,3.2c-1.7,0.1-3.1-1.1-3.2-2.8c0-0.1,0-0.1,0-0.2v-9.7c0-2.9-1.5-5.6-4-7l-22-12.7
	c-2.5-1.5-5.5-1.5-8,0l-22,12.7c-2.5,1.4-4,4.1-4,7v25.4c0,2.9,1.5,5.6,4,7l8.6,4.9c1.4,0.9,1.9,2.7,1.1,4.1l-0.3,0.5
	c-0.8,1.5-2.6,2-4.1,1.2l0,0l-8.3-4.8c-2.5-1.5-5.5-1.5-8,0l-22,12.7c-2.5,1.4-4,4.1-4,7v9.5c0.1,1.6-1.2,3-2.8,3.2
	c-1.7,0.1-3.1-1.1-3.2-2.8c0-0.1,0-0.1,0-0.2v-9.7c0-2.9-1.5-5.6-4-7l-22-12.7c-2.5-1.5-5.5-1.5-8,0l-22,12.7c-2.5,1.4-4,4.1-4,7
	v9.8c0,1.6-1.3,2.9-2.9,2.9l0,0h-0.2c-1.6,0-2.9-1.3-2.9-2.9l0,0v-9.8c0-2.9-1.5-5.6-4-7l-22-12.7c-2.5-1.5-5.5-1.5-8,0l-8.4,4.8
	c-1.4,0.8-3.1,0.3-3.9-1l-0.4-0.8c-0.8-1.4-0.3-3.1,1-3.9l8.7-5c2.5-1.4,4-4.1,4-7v-25.4c0-2.9-1.5-5.6-4-7l-22-12.7
	c-2.5-1.5-5.5-1.5-8,0l-9.6,5.6c-1,0.5-2.2,0.1-2.7-0.9c-0.1-0.3-0.2-0.5-0.2-0.8l0,0c0.1-2,1.2-3.9,2.9-5l6.6-3.8
	c2.5-1.4,4-4.1,4-7v-25.4c0-2.9-1.5-5.6-4-7l-22-12.7c-2.5-1.5-5.5-1.5-8,0l-22,12.7c-2.5,1.4-4,4.1-4,7v9.8c0,1.6-1.3,2.9-2.9,2.9
	l0,0h-0.2c-1.6,0-2.9-1.3-2.9-2.9l0,0v-9.8c0-2.9-1.5-5.6-4-7l-22-12.7c-2.5-1.5-5.5-1.5-8,0l-8.4,4.8c-1.4,0.8-3.1,0.3-3.9-1
	l-0.4-0.8c-0.8-1.4-0.3-3.1,1-3.9l8.7-5c2.5-1.4,4-4.1,4-7V77.8c0-2.9-1.5-5.6-4-7l-22-12.7c-2.5-1.5-5.5-1.5-8,0l-22,12.7
	c-2.5,1.4-4,4.1-4,7v9.8c0,1.6-1.3,2.9-2.9,2.9l0,0h-0.2c-1.6,0-2.9-1.3-2.9-2.9l0,0v-9.8c0-2.9-1.5-5.6-4-7l-22-12.7
	c-2.5-1.5-5.5-1.5-8,0l-22,12.7c-2.5,1.4-4,4.1-4,7v25.4c0,2.9,1.5,5.6,4,7l22,12.7c2.5,1.5,5.5,1.5,8,0l8.4-4.8
	c1.4-0.8,3.1-0.3,3.9,1l0.4,0.8c0.8,1.4,0.3,3.1-1,3.9l-8.7,5c-2.5,1.4-4,4.1-4,7v25.4c0,2.9,1.5,5.6,4,7l6.6,3.8
	c1.7,1.1,2.8,3,2.9,5l0,0c0,1.1-1,2-2.1,1.9c-0.3,0-0.6-0.1-0.8-0.2l-9.6-5.6c-2.5-1.5-5.5-1.5-8,0l-22,12.7c-2.5,1.4-4,4.1-4,7v9.8
	c0,1.6-1.3,2.9-2.9,2.9l0,0h-0.2c-1.6,0-2.9-1.3-2.9-2.9l0,0v-9.8c0-2.9-1.5-5.6-4-7l-22-12.7c-2.5-1.5-5.5-1.5-8,0l-22,12.7
	c-2.5,1.4-4,4.1-4,7v25.4c0,2.9,1.5,5.6,4,7l8.7,5c1.3,0.8,1.8,2.5,1,3.9l-0.4,0.8c-0.8,1.3-2.5,1.8-3.9,1l-8.4-4.8
	c-2.5-1.5-5.5-1.5-8,0l-22,12.7c-2.5,1.4-4,4.1-4,7v9.8c0,1.6-1.3,2.9-2.9,2.9l0,0h-0.2c-1.6,0-2.9-1.3-2.9-2.9l0,0v-9.8
	c0-2.9-1.5-5.6-4-7l-22-12.7c-2.5-1.5-5.5-1.5-8,0l-22,12.7c-2.5,1.4-4,4.1-4,7v25.4c0,2.9,1.5,5.6,4,7l6.6,3.8c1.7,1.1,2.8,3,2.9,5
	l0,0c0,1.1-1,2-2.1,1.9c-0.3,0-0.6-0.1-0.8-0.2l-9.6-5.6c-2.5-1.5-5.5-1.5-8,0l-22,12.7c-2.5,1.4-4,4.1-4,7v25.4c0,2.9,1.5,5.6,4,7
	l6.6,3.8c1.7,1.1,2.8,3,2.9,5l0,0c0,1.1-1,2-2.1,1.9c-0.3,0-0.6-0.1-0.8-0.2l-9.6-5.6c-2.5-1.5-5.5-1.5-8,0l-22,12.7
	c-2.5,1.4-4,4.1-4,7v9.5c0.1,1.6-1.2,3-2.8,3.2c-1.7,0.1-3.1-1.1-3.2-2.8c0-0.1,0-0.1,0-0.2v-9.7c0-2.9-1.5-5.6-4-7l-22-12.7
	c-2.5-1.5-5.5-1.5-8,0l-22,12.7c-2.5,1.4-4,4.1-4,7v9.5c0.1,1.6-1.2,3-2.8,3.2c-1.7,0.1-3.1-1.1-3.2-2.8c0-0.1,0-0.1,0-0.2v-9.7
	c0-2.9-1.5-5.6-4-7l-22-12.7c-2.5-1.5-5.5-1.5-8,0l-22,12.7c-2.5,1.4-4,4.1-4,7v9.5c0.1,1.6-1.2,3-2.8,3.2c-1.7,0.1-3.1-1.1-3.2-2.8
	c0-0.1,0-0.1,0-0.2v-9.7c0-2.9-1.5-5.6-4-7l-22-12.7c-2.5-1.5-5.5-1.5-8,0l-22,12.7c-2.5,1.4-4,4.1-4,7v9.5c0.1,1.6-1.2,3-2.8,3.2
	c-1.7,0.1-3.1-1.1-3.2-2.8c0-0.1,0-0.1,0-0.2v-9.7c0-2.9-1.5-5.6-4-7l-22-12.7c-2.5-1.5-5.5-1.5-8,0l-22,12.7c-2.5,1.4-4,4.1-4,7
	v9.5c0.1,1.6-1.2,3-2.8,3.2c-1.7,0.1-3.1-1.1-3.2-2.8c0-0.1,0-0.1,0-0.2v-9.7c0-2.9-1.5-5.6-4-7l-22-12.7c-2.5-1.5-5.5-1.5-8,0
	l-22,12.7c-2.5,1.4-4,4.1-4,7v9.5c0.1,1.6-1.2,3-2.8,3.2c-1.7,0.1-3.1-1.1-3.2-2.8c0-0.1,0-0.1,0-0.2v-9.7c0-2.9-1.5-5.6-4-7
	l-22-12.7c-2.5-1.5-5.5-1.5-8,0l-22,12.7c-2.5,1.4-4,4.1-4,7v12.7h-6v-12.7c0-2.9-1.5-5.6-4-7l-22-12.7c-2.5-1.5-5.5-1.5-8,0
	l-22,12.7c-2.5,1.4-4,4.1-4,7v9.8c0,1.6-1.3,2.9-2.9,2.9l0,0h-0.2c-1.6,0-2.9-1.3-2.9-2.9l0,0v-9.8c0-2.9-1.5-5.6-4-7l-22-12.7
	c-2.5-1.5-5.5-1.5-8,0l-22,12.7c-2.5,1.4-4,4.1-4,7v9.8c0,1.6-1.3,2.9-2.9,2.9l0,0h-0.2c-1.6,0-2.9-1.3-2.9-2.9l0,0v-9.8
	c0-2.9-1.5-5.6-4-7l-22-12.7c-2.5-1.5-5.5-1.5-8,0l-22,12.7c-2.5,1.4-4,4.1-4,7v9.8c0,1.6-1.3,2.9-2.9,2.9l0,0h-0.2
	c-1.6,0-2.9-1.3-2.9-2.9l0,0v-9.8c0-2.9-1.5-5.6-4-7l-22-12.7c-2.5-1.5-5.5-1.5-8,0l-7.8,4.5c-1.5,0.8-3.4,0.6-4.7-0.6l0,0
	c-0.9-0.8-1-2.2-0.2-3.1c0.2-0.2,0.4-0.4,0.7-0.5l9-5.2c2.5-1.4,4-4.1,4-7v-25.4c0-2.9-1.5-5.6-4-7l-22-12.7c-2.5-1.5-5.5-1.5-8,0
	l-22,12.7c-2.5,1.4-4,4.1-4,7v9.8c0,1.6-1.3,2.9-2.9,2.9l0,0h-0.2c-1.6,0-2.9-1.3-2.9-2.9l0,0v-9.8c0-2.9-1.5-5.6-4-7l-22-12.7
	c-2.5-1.5-5.5-1.5-8,0l-22,12.7c-2.5,1.4-4,4.1-4,7v9.8c0,1.6-1.3,2.9-2.9,2.9l0,0h-0.2c-1.6,0-2.9-1.3-2.9-2.9l0,0v-9.8
	c0-2.9-1.5-5.6-4-7l-22-12.7c-2.5-1.5-5.5-1.5-8,0l-7.7,4.4c-1.5,0.9-3.4,0.6-4.7-0.6l0,0c-0.9-0.8-1-2.1-0.2-3
	c0.2-0.2,0.4-0.4,0.7-0.5l8.9-5.2c2.5-1.4,4-4.1,4-7v-25.4c0-2.9-1.5-5.6-4-7l-22-12.7c-2.5-1.5-5.5-1.5-8,0l-8.3,4.8
	c-1.4,0.8-3.1,0.3-3.9-1.1l-0.4-0.7c-0.8-1.4-0.3-3.1,1-4l8.6-4.9c2.5-1.4,4-4.1,4-7v-25.4c0-2.9-1.5-5.6-4-7l-22-12.7
	c-2.5-1.5-5.5-1.5-8,0l-22,12.7c-2.5,1.4-4,4.1-4,7v9.8c0,1.6-1.3,2.9-2.9,2.9l0,0h-0.2c-1.6,0-2.9-1.3-2.9-2.9l0,0v-9.8
	c0-2.9-1.5-5.6-4-7l-22-12.7c-2.5-1.5-5.5-1.5-8,0l-7.8,4.5c-1.5,0.8-3.4,0.6-4.7-0.6l0,0c-0.9-0.8-1-2.2-0.2-3.1
	c0.2-0.2,0.4-0.4,0.7-0.5l9-5.2c2.5-1.4,4-4.1,4-7v-25.4c0-2.9-1.5-5.6-4-7l-22-12.7c-2.5-1.5-5.5-1.5-8,0l-22,12.7
	c-2.5,1.4-4,4.1-4,7v9.8c0,1.6-1.3,2.9-2.9,2.9h-0.2c-1.6,0-2.9-1.3-2.9-2.9v-9.8c0-2.9-1.5-5.6-4-7l-22-12.7c-2.5-1.5-5.5-1.5-8,0
	l-22,12.7c-2.5,1.4-4,4.1-4,7v9.8c0,1.6-1.3,2.9-2.9,2.9h-0.2c-1.6,0-2.9-1.3-2.9-2.9v-9.8c0-2.9-1.5-5.6-4-7l-22-12.7
	c-2.5-1.5-5.5-1.5-8,0l-8.4,4.8c-1.4,0.8-3.1,0.3-3.9-1l-0.4-0.8c-0.8-1.4-0.3-3.1,1-3.9l8.7-5c2.5-1.4,4-4.1,4-7V77.8
	c0-2.9-1.5-5.6-4-7l-22-12.7c-2.5-1.5-5.5-1.5-8,0l-22,12.7c-2.5,1.4-4,4.1-4,7v9.8c0,1.6-1.3,2.9-2.9,2.9h-0.2
	c-1.6,0-2.9-1.3-2.9-2.9v-9.8c0-2.9-1.5-5.6-4-7l-22-12.7c-2.5-1.5-5.5-1.5-8,0l-22,12.7c-2.5,1.4-4,4.1-4,7v25.4c0,2.9,1.5,5.6,4,7
	l8.6,4.9c1.3,0.9,1.8,2.6,1,4l-0.4,0.7c-0.8,1.4-2.5,1.9-3.9,1.1l-8.3-4.8c-2.5-1.5-5.5-1.5-8,0l-22,12.7c-2.5,1.4-4,4.1-4,7v25.4
	c0,2.9,1.5,5.6,4,7l8.9,5.2c1.1,0.5,1.5,1.7,1,2.8c-0.1,0.3-0.3,0.5-0.5,0.7l0,0c-1.3,1.2-3.2,1.5-4.7,0.6l-7.7-4.4
	c-2.5-1.5-5.5-1.5-8,0l-22,12.7c-2.5,1.4-4,4.1-4,7v25.4c0,2.9,1.5,5.6,4,7l22,12.7c2.5,1.5,5.5,1.5,8,0l8.4-4.8
	c1.4-0.8,3.1-0.3,3.9,1l0.4,0.8c0.8,1.4,0.3,3.1-1,3.9l-8.7,5c-2.5,1.4-4,4.1-4,7v25.4c0,2.9,1.5,5.6,4,7l8.3,4.8
	c1.4,0.8,1.9,2.6,1.2,4l0,0c-0.7,1.3-2.3,1.9-3.6,1.2c-0.1,0-0.1-0.1-0.2-0.1l-8.7-5c-2.5-1.5-5.5-1.5-8,0l-22,12.7
	c-2.5,1.4-4,4.1-4,7v9.8c0,1.6-1.3,2.9-2.9,2.9h-0.2c-1.6,0-2.9-1.3-2.9-2.9v-9.8c0-2.9-1.5-5.6-4-7l-22-12.7c-2.5-1.5-5.5-1.5-8,0
	l-7.7,4.4c-1.5,0.9-3.4,0.6-4.7-0.6l0,0c-0.9-0.8-1-2.1-0.2-3c0.2-0.2,0.4-0.4,0.7-0.5l8.9-5.2c2.5-1.4,4-4.1,4-7v-25.4
	c0-2.9-1.5-5.6-4-7l-22-12.7c-2.5-1.5-5.5-1.5-8,0l-8.3,4.8c-1.4,0.8-3.1,0.3-3.9-1.1l-0.4-0.7c-0.8-1.4-0.3-3.1,1-4l8.6-4.9
	c2.5-1.4,4-4.1,4-7v-25.4c0-2.9-1.5-5.6-4-7l-22-12.7c-2.5-1.5-5.5-1.5-8,0l-8.3,4.8c-1.2,0.7-2.7,0.5-3.7-0.5
	c-1.1-1.2-0.9-3,0.3-4.1c0.1-0.1,0.3-0.2,0.4-0.3l8.3-4.8c2.5-1.4,4-4.1,4-7v-25.4c0-2.9-1.5-5.6-4-7L4,116.1
	c-1.2-0.7-2.6-1.1-4-1.1v285H2178z"/>
</svg>
