<svg xmlns="http://www.w3.org/2000/svg" viewBox="0 0 1139.21 950"><defs><style>.a{fill:#8cb4c8;}</style></defs><path class="a" d="M604.44,11A573.64,573.64,0,0,1,777.78,37.93C836.16,56.42,894,84.79,949.64,122.27a411.34,411.34,0,0,1,81.51,72.42,442.26,442.26,0,0,1,59.55,89.12c31.72,62.55,49.9,134,52.56,206.49,2.58,70.22-9.47,140-34.85,201.68A414.77,414.77,0,0,1,1059,780.24a377.79,377.79,0,0,1-70.73,73.19c-83,65.2-152.42,95.57-218.58,95.57-61.77,0-115.92-25.74-178.62-55.54C513.62,856.64,425.78,814.9,298,809c-63.92-2.94-123.41-28.32-172-73.41a324.56,324.56,0,0,1-59.59-75,366.05,366.05,0,0,1-37.61-91.67,381.25,381.25,0,0,1-12-113.58A375.82,375.82,0,0,1,40.71,339,384.32,384.32,0,0,1,105,229.2c29.72-35.76,66.52-67.41,109.35-94.07C346.72,52.76,478,11,604.44,11m0-6C472.05,5,339.79,50,211.21,130-130.21,342.53,7.64,801.69,297.71,815c230.43,10.59,332,140,472,140,61.8,0,131.08-25.17,222.29-96.85,223.9-176,207.73-574.71-39-740.86C838.4,40.14,721.37,5,604.44,5Z" transform="translate(-10.39 -5)"/></svg>