<?xml version="1.0" encoding="utf-8"?>
<!-- Generator: Adobe Illustrator 19.0.0, SVG Export Plug-In . SVG Version: 6.00 Build 0)  -->
<svg version="1.1" id="Layer_1" xmlns="http://www.w3.org/2000/svg" xmlns:xlink="http://www.w3.org/1999/xlink" x="0px" y="0px"
	 viewBox="0 0 512 512" style="enable-background:new 0 0 512 512;" xml:space="preserve">
<g id="XMLID_1_">
	<path id="XMLID_3_" d="M25,384.4v51.2h51.2v51.2C76.2,501,88,512,101.4,512h307.2c14.2,0,25.2-11.8,25.2-25.2v-51.2H485v-51.2H25z"
		/>
	<path id="XMLID_4_" d="M488.2,89l-45.7-76.4C437.7,4.7,429.9,0,420.4,0H91.2c-8.7,0-17.3,4.7-22.1,12.6L23.4,89
		c-4.7,7.9-4.7,18.1,0,26s13.4,12.6,22.1,12.6H77v230.8h51.2V127.6h102.4V204h-19.7c-7.9,0-15,3.2-19.7,9.5
		c-4.7,6.3-7.1,13.4-5.5,21.3l15,76.4c2.4,11.8,12.6,20.5,25.2,20.5h60.7c12.6,0,22.8-8.7,25.2-20.5l15-76.4
		c1.6-7.9-0.8-15-5.5-21.3c-4.7-6.3-11.8-9.5-19.7-9.5h-19.7v-76.4h102.4v230.8h51.2V127.6h31.5c9.5,0,18.1-4.7,22.1-12.6
		C493.7,107.1,492.9,96.9,488.2,89z"/>
</g>
</svg>
