<svg xmlns="http://www.w3.org/2000/svg" viewBox="0 0 64 64"><defs><style>.a{fill:#5d6970;}</style></defs><path class="a" d="M56.5,64H7.5A7.5,7.5,0,0,1,0,56.5v-46A7.5,7.5,0,0,1,7.5,3h49A7.5,7.5,0,0,1,64,10.5v46A7.5,7.5,0,0,1,56.5,64ZM7.5,6A4.51,4.51,0,0,0,3,10.5v46A4.51,4.51,0,0,0,7.5,61h49A4.51,4.51,0,0,0,61,56.5v-46A4.51,4.51,0,0,0,56.5,6Z"/><path class="a" d="M62,23H2a1.5,1.5,0,0,1,0-3H62a1.5,1.5,0,0,1,0,3Z"/><path class="a" d="M44,14.5H20a1.5,1.5,0,0,1,0-3H44a1.5,1.5,0,0,1,0,3Z"/><path class="a" d="M11,9A1.5,1.5,0,0,1,9.5,7.5v-6a1.5,1.5,0,0,1,3,0v6A1.5,1.5,0,0,1,11,9Z"/><path class="a" d="M53,9a1.5,1.5,0,0,1-1.5-1.5v-6a1.5,1.5,0,0,1,3,0v6A1.5,1.5,0,0,1,53,9Z"/><path class="a" d="M42,55.75a1.5,1.5,0,0,1-1.5-1.5v-24a1.5,1.5,0,0,1,3,0v24A1.5,1.5,0,0,1,42,55.75Z"/><path class="a" d="M36,37.25a1.51,1.51,0,0,1-1.06-.44,1.49,1.49,0,0,1,0-2.12l6-6a1.5,1.5,0,0,1,2.12,2.12l-6,6A1.51,1.51,0,0,1,36,37.25Z"/><path class="a" d="M26,55.75a1.5,1.5,0,0,1-1.5-1.5v-24a1.5,1.5,0,0,1,3,0v24A1.5,1.5,0,0,1,26,55.75Z"/><path class="a" d="M20,37.25a1.51,1.51,0,0,1-1.06-.44,1.49,1.49,0,0,1,0-2.12l6-6a1.5,1.5,0,0,1,2.12,2.12l-6,6A1.51,1.51,0,0,1,20,37.25Z"/></svg>