<svg xmlns="http://www.w3.org/2000/svg" viewBox="0 0 64 57"><defs><style>.a{fill:#5d6970;}</style></defs><path class="a" d="M58.5,8h-7V4.5A4.51,4.51,0,0,0,47,0H17a4.51,4.51,0,0,0-4.5,4.5V8h-7A5.51,5.51,0,0,0,0,13.5v28A5.51,5.51,0,0,0,5.5,47h8.41a1.34,1.34,0,0,0,.35,0,1.42,1.42,0,0,0,.36,0h12A1.5,1.5,0,0,0,28,48l-1.33,6H24a1.5,1.5,0,0,0,0,3H40a1.5,1.5,0,0,0,0-3H37.35L36,48a1.5,1.5,0,0,0,1.39-1H58.5A5.51,5.51,0,0,0,64,41.5v-28A5.51,5.51,0,0,0,58.5,8ZM10.62,38.14l4.31-4.31,3,3a1.49,1.49,0,0,0,2.12,0l7.09-7.1,2.4,2.4v6ZM29.5,27.85l-1.33-1.34a1.52,1.52,0,0,0-2.13,0L19,33.61l-3-3a1.51,1.51,0,0,0-2.12,0L8.5,36V23.14h21ZM3,41.5v-28A2.5,2.5,0,0,1,5.5,11h7v9.14H7a1.5,1.5,0,0,0-1.5,1.5v18a1.46,1.46,0,0,0,.11.55v0a1.57,1.57,0,0,0,.82.82h0a1.46,1.46,0,0,0,.55.11h5.76V44H5.5A2.5,2.5,0,0,1,3,41.5ZM29.72,54l1.33-6H33l1.33,6ZM61,41.5A2.5,2.5,0,0,1,58.5,44h-7V39H54a1.5,1.5,0,0,0,1.5-1.5V32a1.5,1.5,0,0,0-3,0v4h-4a1.5,1.5,0,0,0,0,3v5H15.76V41.14H31a1.5,1.5,0,0,0,1.5-1.5v-18a1.5,1.5,0,0,0-1.5-1.5H15.5V4.5A1.5,1.5,0,0,1,17,3H47a1.5,1.5,0,0,1,1.5,1.5V18a1.5,1.5,0,0,0,0,3h4v4a1.5,1.5,0,0,0,3,0V19.5A1.5,1.5,0,0,0,54,18H51.5V11h7A2.5,2.5,0,0,1,61,13.5Z"/><path class="a" d="M24,11.14H40a1.5,1.5,0,0,0,0-3H24a1.5,1.5,0,0,0,0,3Z"/><path class="a" d="M44,13.64a1.5,1.5,0,0,0-1.5-1.5h-21a1.5,1.5,0,0,0,0,3h21A1.5,1.5,0,0,0,44,13.64Z"/><circle class="a" cx="19" cy="27.5" r="2"/><path class="a" d="M43.5,36h-4V32a1.5,1.5,0,0,0-3,0v5.5A1.5,1.5,0,0,0,38,39h5.5a1.5,1.5,0,0,0,0-3Z"/><path class="a" d="M38,18a1.5,1.5,0,0,0-1.5,1.5V25a1.5,1.5,0,0,0,3,0V21h4a1.5,1.5,0,0,0,0-3Z"/><path class="a" d="M50,23H42a1.5,1.5,0,0,0,0,3h8a1.5,1.5,0,0,0,0-3Z"/><path class="a" d="M50,27H42a1.5,1.5,0,0,0,0,3h8a1.5,1.5,0,0,0,0-3Z"/><path class="a" d="M46,31H42a1.5,1.5,0,0,0,0,3h4a1.5,1.5,0,0,0,0-3Z"/></svg>