<?xml version="1.0" encoding="utf-8"?>
<!-- Svg Vector Icons : http://www.onlinewebfonts.com/icon -->
<!DOCTYPE svg PUBLIC "-//W3C//DTD SVG 1.1//EN" "http://www.w3.org/Graphics/SVG/1.1/DTD/svg11.dtd">
<svg version="1.1" xmlns="http://www.w3.org/2000/svg" xmlns:xlink="http://www.w3.org/1999/xlink" x="0px" y="0px" viewBox="0 0 256 256" enable-background="new 0 0 256 256" xml:space="preserve">
<metadata> Svg Vector Icons : http://www.onlinewebfonts.com/icon </metadata>
<g><g><g><path fill="#000000" d="M40.6,1.3c-1.3,0.6-3.1,1.9-4,2.8c-2.9,3.2-26.1,42.6-26.5,45c-0.8,5.3,1.9,10.6,6.8,13.1c3,1.5,3.7,1.6,12.4,1.6h9.2v57.6v57.6h12.6h12.6v-57.6V63.8h25.8h25.8v19.5v19.5h-6.6c-5.4,0-7.1,0.2-8.9,1.1c-4.1,2.2-7.3,6.9-7.3,11.2c0,0.7,1.9,10.7,4.2,22.2c4.7,23.4,5,24.4,10.2,27.3l2.7,1.5H128h18.3l2.7-1.5c5.1-2.9,5.5-3.9,10.2-27.3c2.3-11.5,4.2-21.5,4.2-22.2c0-4.3-3.1-9.1-7.3-11.2c-1.9-0.9-3.5-1.1-8.9-1.1h-6.6V83.3V63.8h25.8h25.8v57.6v57.6h12.6h12.6v-57.6V63.8h9.2c8.7,0,9.4-0.1,12.4-1.6c4.9-2.5,7.7-7.7,6.8-13.1c-0.4-2.5-23.5-41.8-26.5-45c-0.9-1-2.7-2.2-4-2.8c-2.3-1.1-5.9-1.1-87.4-1.1C46.6,0.2,42.9,0.2,40.6,1.3z"/><path fill="#000000" d="M12.7,204.9v12.6h12.9h12.9v13.6c0,7.7,0.3,14.7,0.7,16c0.8,3.2,5,7.3,8.2,8.2c1.7,0.5,25,0.7,81.9,0.5l79.5-0.2l2.5-1.7c1.4-0.9,3.2-2.8,4.1-4.1l1.7-2.5l0.2-14.9l0.2-14.9h12.9h12.8v-12.6v-12.6H128H12.7V204.9z"/></g></g></g>
</svg>